<svg version="1.1" id="Layer_1" xmlns="http://www.w3.org/2000/svg" xmlns:xlink="http://www.w3.org/1999/xlink" x="0px" y="0px"
	 width="100%" viewBox="0 0 500 500" enable-background="new 0 0 500 500" xml:space="preserve">
<path fill="#010001" opacity="1.000000" stroke="none" 
	d="
M275.000000,501.000000 
	C183.333359,501.000000 92.166710,501.000000 1.000049,501.000000 
	C1.000033,334.333405 1.000033,167.666794 1.000016,1.000138 
	C167.666565,1.000092 334.333130,1.000092 500.999756,1.000046 
	C500.999847,167.666519 500.999847,334.333038 500.999939,500.999786 
	C425.833344,501.000000 350.666656,501.000000 275.000000,501.000000 
M52.870747,296.417084 
	C50.053490,306.039551 53.077133,310.082520 63.092339,310.082825 
	C77.919563,310.083252 92.746780,310.083527 107.574005,310.082703 
	C117.176414,310.082184 121.398300,306.818756 123.875900,297.543274 
	C128.787949,279.153961 133.800903,260.791077 138.611008,242.375168 
	C142.243256,228.468765 141.704437,229.421890 156.166077,229.482361 
	C161.728546,229.505615 162.520004,230.707321 161.083099,236.105850 
	C155.469986,257.194672 149.883331,278.290649 144.352188,299.401062 
	C142.699966,305.707062 146.153305,310.068970 152.664749,310.076843 
	C168.491547,310.095978 184.318375,310.084045 200.145187,310.082550 
	C208.926788,310.081726 213.716660,306.634338 216.063553,298.024109 
	C221.020935,279.836487 225.884109,261.621765 230.596130,243.369156 
	C234.228210,229.299881 234.099472,229.266632 248.804352,229.473007 
	C254.011902,229.546097 254.745789,230.324783 253.427216,235.361542 
	C249.111313,251.847610 244.606979,268.284485 240.322617,284.778595 
	C238.792267,290.670197 237.417236,296.629547 236.477463,302.637177 
	C235.883575,306.433685 238.248596,309.493378 241.891434,309.813995 
	C248.103348,310.360626 254.398209,309.964630 258.828705,309.964630 
	C260.946808,304.153015 262.131195,299.246307 264.435974,294.939117 
	C268.675201,287.016846 273.454651,279.372101 278.260986,271.771057 
	C279.973145,269.063324 280.151489,266.872589 278.772156,263.949249 
	C274.294922,254.460190 270.017761,244.872696 265.858551,235.238907 
	C262.458893,227.364441 267.154053,221.017929 275.662262,221.777985 
	C277.144928,221.910431 278.611603,222.295151 280.067719,222.639328 
	C289.629150,224.899460 299.144775,227.389069 308.778687,229.276169 
	C310.674530,229.647537 313.355591,228.100906 314.991730,226.662277 
	C315.632416,226.098923 314.876221,223.060745 313.936737,221.726837 
	C306.480164,211.139709 296.260834,205.365631 283.206726,205.353378 
	C219.233154,205.293335 155.258759,205.476959 91.286613,205.168045 
	C81.377350,205.120193 75.952179,209.745834 73.674507,218.391556 
	C66.889603,244.146210 60.018318,269.878113 52.870747,296.417084 
M404.980621,249.476501 
	C390.094147,234.001633 375.872162,217.810120 360.152557,203.233704 
	C340.606323,185.108932 318.524414,170.368179 292.812958,162.122177 
	C286.889069,160.222336 280.453827,159.385345 274.213287,159.153641 
	C267.937408,158.920639 263.791168,162.875931 263.200226,168.597565 
	C262.260956,177.691544 265.386353,185.802933 270.054291,194.808304 
	C269.692871,189.868713 269.094116,186.255936 269.230652,182.671143 
	C269.598846,173.001801 275.062378,168.088531 284.590454,169.656708 
	C290.420898,170.616302 296.439178,172.313446 301.591675,175.116013 
	C311.805756,180.671692 322.020599,186.504608 331.276215,193.492920 
	C361.913116,216.624802 386.597351,245.437820 408.185181,276.955994 
	C414.196747,285.732819 419.431366,295.069458 424.598267,304.384521 
	C426.916687,308.564178 428.575470,313.217072 429.849335,317.843628 
	C431.772064,324.826874 429.153809,327.579193 422.122589,325.577057 
	C416.408478,323.949982 410.768799,321.611603 405.559753,318.745941 
	C390.710815,310.577026 377.651611,299.990295 365.871155,287.824493 
	C365.204071,287.135559 364.696930,286.291718 363.832672,285.144897 
	C371.795227,281.779755 379.462646,278.539337 388.112854,274.883575 
	C385.332214,273.184265 383.812561,272.206421 382.247681,271.307281 
	C372.710724,265.827545 363.081390,260.500397 353.692352,254.778595 
	C351.919983,253.698502 350.205811,251.173401 349.972504,249.141907 
	C348.699005,238.054443 347.907562,226.911865 346.920929,215.790848 
	C346.767731,214.063965 346.462921,212.350555 346.118042,209.823502 
	C344.130798,211.514877 342.854492,212.538910 341.647247,213.638748 
	C333.516174,221.046478 325.303619,228.369263 317.337341,235.950653 
	C314.960754,238.212402 312.796265,238.605499 309.743469,237.840210 
	C298.594910,235.045410 287.389709,232.475616 276.195679,229.864655 
	C275.050385,229.597519 273.836884,229.622833 271.988403,229.450195 
	C272.945465,231.751053 273.536865,233.267105 274.199707,234.751251 
	C278.684662,244.793655 283.093994,254.871582 287.739075,264.839539 
	C289.015198,267.577942 288.825043,269.662903 287.243073,272.202209 
	C281.868652,280.829132 276.720947,289.597565 271.509247,298.325409 
	C270.174347,300.560913 268.922546,302.846008 267.086823,306.065491 
	C270.274292,305.776093 272.366180,305.616730 274.451019,305.391663 
	C285.216675,304.229523 295.968597,302.907898 306.756042,302.011230 
	C308.661560,301.852844 311.302734,302.904358 312.596252,304.318878 
	C318.891205,311.202789 324.833405,318.408752 330.922333,325.481873 
	C333.279114,328.219604 335.693542,330.907654 338.801880,334.435730 
	C340.417938,327.166260 341.804260,320.930115 343.300323,314.200348 
	C345.192108,315.216644 346.627045,315.942749 348.019745,316.742371 
	C368.080811,328.260742 389.107635,337.511505 411.824158,342.200012 
	C419.560791,343.796783 427.714386,344.298798 435.614960,343.936707 
	C445.048920,343.504364 449.440247,338.376923 448.182709,329.074615 
	C447.172333,321.600739 444.975189,314.061218 441.977356,307.124420 
	C432.916443,286.158112 419.612366,267.785583 404.980621,249.476501 
z"/>
<path fill="#BA92F7" opacity="1.000000" stroke="none" 
	d="
M53.025764,296.018005 
	C60.018318,269.878113 66.889603,244.146210 73.674507,218.391556 
	C75.952179,209.745834 81.377350,205.120193 91.286613,205.168045 
	C155.258759,205.476959 219.233154,205.293335 283.206726,205.353378 
	C296.260834,205.365631 306.480164,211.139709 313.936737,221.726837 
	C314.876221,223.060745 315.632416,226.098923 314.991730,226.662277 
	C313.355591,228.100906 310.674530,229.647537 308.778687,229.276169 
	C299.144775,227.389069 289.629150,224.899460 280.067719,222.639328 
	C278.611603,222.295151 277.144928,221.910431 275.662262,221.777985 
	C267.154053,221.017929 262.458893,227.364441 265.858551,235.238907 
	C270.017761,244.872696 274.294922,254.460190 278.772156,263.949249 
	C280.151489,266.872589 279.973145,269.063324 278.260986,271.771057 
	C273.454651,279.372101 268.675201,287.016846 264.435974,294.939117 
	C262.131195,299.246307 260.946808,304.153015 258.828705,309.964630 
	C254.398209,309.964630 248.103348,310.360626 241.891434,309.813995 
	C238.248596,309.493378 235.883575,306.433685 236.477463,302.637177 
	C237.417236,296.629547 238.792267,290.670197 240.322617,284.778595 
	C244.606979,268.284485 249.111313,251.847610 253.427216,235.361542 
	C254.745789,230.324783 254.011902,229.546097 248.804352,229.473007 
	C234.099472,229.266632 234.228210,229.299881 230.596130,243.369156 
	C225.884109,261.621765 221.020935,279.836487 216.063553,298.024109 
	C213.716660,306.634338 208.926788,310.081726 200.145187,310.082550 
	C184.318375,310.084045 168.491547,310.095978 152.664749,310.076843 
	C146.153305,310.068970 142.699966,305.707062 144.352188,299.401062 
	C149.883331,278.290649 155.469986,257.194672 161.083099,236.105850 
	C162.520004,230.707321 161.728546,229.505615 156.166077,229.482361 
	C141.704437,229.421890 142.243256,228.468765 138.611008,242.375168 
	C133.800903,260.791077 128.787949,279.153961 123.875900,297.543274 
	C121.398300,306.818756 117.176414,310.082184 107.574005,310.082703 
	C92.746780,310.083527 77.919563,310.083252 63.092339,310.082825 
	C53.077133,310.082520 50.053490,306.039551 53.025764,296.018005 
z"/>
<path fill="#F8F8F8" opacity="1.000000" stroke="none" 
	d="
M405.202332,249.755890 
	C419.612366,267.785583 432.916443,286.158112 441.977356,307.124420 
	C444.975189,314.061218 447.172333,321.600739 448.182709,329.074615 
	C449.440247,338.376923 445.048920,343.504364 435.614960,343.936707 
	C427.714386,344.298798 419.560791,343.796783 411.824158,342.200012 
	C389.107635,337.511505 368.080811,328.260742 348.019745,316.742371 
	C346.627045,315.942749 345.192108,315.216644 343.300323,314.200348 
	C341.804260,320.930115 340.417938,327.166260 338.801880,334.435730 
	C335.693542,330.907654 333.279114,328.219604 330.922333,325.481873 
	C324.833405,318.408752 318.891205,311.202789 312.596252,304.318878 
	C311.302734,302.904358 308.661560,301.852844 306.756042,302.011230 
	C295.968597,302.907898 285.216675,304.229523 274.451019,305.391663 
	C272.366180,305.616730 270.274292,305.776093 267.086823,306.065491 
	C268.922546,302.846008 270.174347,300.560913 271.509247,298.325409 
	C276.720947,289.597565 281.868652,280.829132 287.243073,272.202209 
	C288.825043,269.662903 289.015198,267.577942 287.739075,264.839539 
	C283.093994,254.871582 278.684662,244.793655 274.199707,234.751251 
	C273.536865,233.267105 272.945465,231.751053 271.988403,229.450195 
	C273.836884,229.622833 275.050385,229.597519 276.195679,229.864655 
	C287.389709,232.475616 298.594910,235.045410 309.743469,237.840210 
	C312.796265,238.605499 314.960754,238.212402 317.337341,235.950653 
	C325.303619,228.369263 333.516174,221.046478 341.647247,213.638748 
	C342.854492,212.538910 344.130798,211.514877 346.118042,209.823502 
	C346.462921,212.350555 346.767731,214.063965 346.920929,215.790848 
	C347.907562,226.911865 348.699005,238.054443 349.972504,249.141907 
	C350.205811,251.173401 351.919983,253.698502 353.692352,254.778595 
	C363.081390,260.500397 372.710724,265.827545 382.247681,271.307281 
	C383.812561,272.206421 385.332214,273.184265 388.112854,274.883575 
	C379.462646,278.539337 371.795227,281.779755 363.832672,285.144897 
	C364.696930,286.291718 365.204071,287.135559 365.871155,287.824493 
	C377.651611,299.990295 390.710815,310.577026 405.559753,318.745941 
	C410.768799,321.611603 416.408478,323.949982 422.122589,325.577057 
	C429.153809,327.579193 431.772064,324.826874 429.849335,317.843628 
	C428.575470,313.217072 426.916687,308.564178 424.598267,304.384521 
	C419.431366,295.069458 414.196747,285.732819 408.185181,276.955994 
	C386.597351,245.437820 361.913116,216.624802 331.276215,193.492920 
	C322.020599,186.504608 311.805756,180.671692 301.591675,175.116013 
	C296.439178,172.313446 290.420898,170.616302 284.590454,169.656708 
	C275.062378,168.088531 269.598846,173.001801 269.230652,182.671143 
	C269.094116,186.255936 269.692871,189.868713 270.054291,194.808304 
	C265.386353,185.802933 262.260956,177.691544 263.200226,168.597565 
	C263.791168,162.875931 267.937408,158.920639 274.213287,159.153641 
	C280.453827,159.385345 286.889069,160.222336 292.812958,162.122177 
	C318.524414,170.368179 340.606323,185.108932 360.152557,203.233704 
	C375.872162,217.810120 390.094147,234.001633 405.202332,249.755890 
z"/>
</svg>