<?xml version="1.0" encoding="UTF-8"?>
<svg version="1.1" xmlns="http://www.w3.org/2000/svg" width="503" height="263">
<path d="M0 0 C1.1535498 0.01474365 2.30709961 0.0294873 3.49560547 0.04467773 C12.68780367 0.30895505 19.95016723 1.82518932 28.375 5.625 C29.68330914 6.16531641 30.99327548 6.70163383 32.3046875 7.234375 C56.52805146 17.25070103 78.37839357 31.78394443 98.375 48.625 C99.12604256 49.25045715 99.12604256 49.25045715 99.89225769 49.8885498 C108.78738518 57.30009856 117.16884663 65.10219051 125.3269043 73.31616211 C127.19683141 75.19688528 129.07732638 77.06656819 130.95898438 78.93554688 C137.15062518 85.12073324 143.04663359 91.35036268 148.45947266 98.23803711 C150.51842225 100.80372028 152.70052471 103.21380936 154.9375 105.625 C159.52456865 110.67236273 163.45167987 116.05476378 167.375 121.625 C168.17547365 122.73163488 168.97762407 123.83705839 169.78125 124.94140625 C208.3504994 178.08559057 208.3504994 178.08559057 208.75 208.375 C208.78738281 209.43460938 208.82476562 210.49421875 208.86328125 211.5859375 C208.94174403 218.61271507 207.97546671 223.20901157 203.375 228.625 C197.75864766 234.0935536 191.75817405 235.9980397 184.0703125 236.05859375 C183.39368561 236.06560303 182.71705872 236.0726123 182.01992798 236.07983398 C179.84610644 236.09378531 177.67377028 236.0813922 175.5 236.0625 C174.75657349 236.05912628 174.01314697 236.05575256 173.24719238 236.05227661 C162.09429659 235.97869242 152.00669156 235.19435622 141.375 231.625 C139.72989788 231.12000759 138.08401281 230.61756123 136.4375 230.1171875 C118.0010805 224.37259284 100.49252114 216.51061564 83.375 207.625 C83.33761719 208.21667969 83.30023438 208.80835938 83.26171875 209.41796875 C82.86680622 214.16466249 82.49205121 217.81527074 79.375 221.625 C75.13322411 224.18453641 71.20652103 224.27653611 66.375 223.625 C57.62816811 219.51934421 51.51109926 209.62153728 45.5625 202.2890625 C42.58282305 198.66024164 39.49853009 195.13018329 36.375 191.625 C32.91422834 192.95362223 32.91422834 192.95362223 29.64239502 194.67616272 C26.48783681 195.99625137 23.76224782 195.90264174 20.34667969 195.93139648 C19.64693527 195.93972 18.94719086 195.94804352 18.22624207 195.95661926 C15.91639612 195.98068296 13.60683296 195.98948794 11.296875 195.99609375 C9.6850781 196.00506475 8.07328204 196.01418668 6.46148682 196.02345276 C3.08221415 196.03993677 -0.29695954 196.04764145 -3.67626953 196.05053711 C-7.99162909 196.05591217 -12.30604868 196.09355737 -16.62114334 196.13928127 C-19.95161267 196.16913345 -23.2818582 196.17626247 -26.61244965 196.17726326 C-28.20238284 196.18145149 -29.79231756 196.19382947 -31.38211823 196.21478081 C-47.60215898 196.41147611 -47.60215898 196.41147611 -53.625 190.625 C-58.72058 184.76508299 -58.18773629 178.14614906 -57.81341553 170.71375656 C-57.25206127 164.49063684 -55.38742079 158.49052571 -53.6875 152.50390625 C-53.28227579 151.02364163 -52.87874362 149.5429129 -52.47680664 148.06175232 C-51.4282138 144.21519424 -50.3571784 140.37526158 -49.28088379 136.53637695 C-48.18108952 132.59775023 -47.10327331 128.65312009 -46.0234375 124.70898438 C-43.91174808 117.00837831 -41.77624385 109.31464958 -39.625 101.625 C-40.615 101.625 -41.605 101.625 -42.625 101.625 C-42.9199939 102.94371094 -42.9199939 102.94371094 -43.22094727 104.2890625 C-46.30233353 117.8205467 -49.88112474 131.22146526 -53.48803711 144.62060547 C-54.20941225 147.30275055 -54.92355142 149.98666778 -55.6315918 152.67236328 C-56.66648551 156.59782206 -57.72113546 160.51772141 -58.77734375 164.4375 C-59.08896957 165.62827148 -59.4005954 166.81904297 -59.72166443 168.04589844 C-62.84924294 179.51213047 -66.79816954 188.05873665 -77.29089355 194.18031311 C-81.09613951 195.82914737 -83.77636144 196.01139421 -87.91210938 196.02905273 C-88.61535843 196.03591599 -89.31860748 196.04277924 -90.04316711 196.04985046 C-92.3519041 196.06804945 -94.65995716 196.06429163 -96.96875 196.05859375 C-98.58248107 196.06315843 -100.1962102 196.06846486 -101.80993652 196.07447815 C-105.1857088 196.08339532 -108.56124431 196.0810016 -111.93701172 196.07104492 C-116.25465942 196.05954856 -120.57149006 196.0797834 -124.88903046 196.10896206 C-128.21943313 196.12734027 -131.5496405 196.12702856 -134.88008118 196.12132454 C-136.47163541 196.12117157 -138.06320308 196.12719604 -139.65470886 196.13961601 C-141.88295252 196.15455831 -144.1096928 196.14382798 -146.33789062 196.12670898 C-148.23601501 196.12645973 -148.23601501 196.12645973 -150.17248535 196.12620544 C-155.33654002 195.37653381 -158.39368448 192.95892515 -161.875 189.1875 C-165.84212721 183.37849229 -166.21617688 178.52448412 -165.625 171.625 C-164.56998566 166.2970548 -163.15445424 161.07939515 -161.72265625 155.84375 C-161.32046512 154.33852962 -160.9193139 152.83303104 -160.51914978 151.32727051 C-159.47026241 147.39270332 -158.40621368 143.46239119 -157.33917236 139.53271484 C-156.46789125 136.31361796 -155.60761972 133.09162735 -154.74785709 129.86943817 C-153.72226546 126.02656385 -152.69194162 122.18496545 -151.66015625 118.34375 C-151.46350939 117.61127548 -151.26686253 116.87880096 -151.06425667 116.12413025 C-150.50899821 114.06057257 -149.95055087 111.99790868 -149.39086914 109.93554688 C-149.07332169 108.76213745 -148.75577423 107.58872803 -148.42860413 106.37976074 C-147.625 103.625 -147.625 103.625 -146.625 101.625 C-147.945 101.625 -149.265 101.625 -150.625 101.625 C-150.75364944 102.79668228 -150.88229889 103.96836456 -151.0148468 105.17555237 C-151.51419089 109.15110778 -152.36129185 112.93870778 -153.38745117 116.81616211 C-153.56327728 117.48562363 -153.73910339 118.15508514 -153.92025757 118.84483337 C-154.49684552 121.03230752 -155.08162558 123.21746559 -155.66796875 125.40234375 C-155.86918146 126.15605318 -156.07039417 126.90976261 -156.27770424 127.68631172 C-157.34205545 131.67293867 -158.41259217 135.65784125 -159.48852539 139.64135742 C-160.59168715 143.73018423 -161.67429652 147.82415484 -162.75214672 151.91971493 C-163.59116842 155.09285617 -164.44519403 158.26182208 -165.30321693 161.42987251 C-165.70856192 162.93649945 -166.10844138 164.44460897 -166.50246239 165.95423698 C-169.21331412 176.31128259 -172.14674389 186.46413353 -181.625 192.625 C-186.22705076 195.30729955 -189.57015929 196.00942223 -194.88037109 196.04492188 C-195.58040756 196.05339142 -196.28044403 196.06186096 -197.00169373 196.07058716 C-199.3007965 196.09386052 -201.59922616 196.09498163 -203.8984375 196.09375 C-205.50737776 196.10085789 -207.1163155 196.10855781 -208.72525024 196.11682129 C-212.09262136 196.13024421 -215.45975811 196.13184499 -218.82714844 196.12597656 C-223.1268047 196.12008509 -227.42532998 196.15065815 -231.72476768 196.19109344 C-235.04668152 196.21703754 -238.36832552 196.21984179 -241.69032669 196.21620178 C-243.27466293 196.21788705 -244.85901244 196.22747212 -246.44324875 196.24534607 C-261.33464426 196.39486755 -261.33464426 196.39486755 -267.21231079 192.03967285 C-271.57747854 187.66837571 -272.85760428 183.2195366 -273.03808594 177.11352539 C-272.90893159 167.50117125 -270.07783704 158.51074061 -267.515625 149.30859375 C-266.98578749 147.36088183 -266.45730883 145.41279981 -265.93011475 143.46437073 C-264.54567058 138.36373803 -263.1411125 133.2688531 -261.73266602 128.17480469 C-260.59206027 124.03576625 -259.46625176 119.89277331 -258.34115982 115.74949551 C-256.98792654 110.76775114 -255.62754533 105.78796926 -254.265625 100.80859375 C-253.8829887 99.4078703 -253.8829887 99.4078703 -253.49262238 97.97884941 C-244.00973745 63.34626985 -244.00973745 63.34626985 -231.96831322 56.00538921 C-227.80848871 54.28787832 -224.45681215 54.19903115 -220.00698853 54.22627258 C-219.15248309 54.21962576 -218.29797765 54.21297893 -217.4175781 54.20613068 C-214.56162933 54.18751628 -211.70610008 54.19010493 -208.85009766 54.19262695 C-206.79997161 54.18360885 -204.74985096 54.17328152 -202.69973755 54.16174316 C-197.13827252 54.13415281 -191.57690975 54.12488584 -186.01538515 54.11888909 C-180.20173365 54.10951078 -174.38815869 54.0833078 -168.57455444 54.05888367 C-157.56748679 54.01520013 -146.56043397 53.98666451 -135.55330598 53.96356028 C-123.02131773 53.9365186 -110.48940639 53.89260642 -97.95747304 53.84727156 C-72.18002372 53.75439868 -46.40255028 53.68273 -20.625 53.625 C-20.97433594 52.79355469 -21.32367188 51.96210937 -21.68359375 51.10546875 C-22.13863281 50.01878906 -22.59367188 48.93210938 -23.0625 47.8125 C-23.51496094 46.73355469 -23.96742188 45.65460937 -24.43359375 44.54296875 C-26.94270779 38.39769601 -26.91753917 33.01562511 -27 26.4375 C-27.05607422 24.76977539 -27.05607422 24.76977539 -27.11328125 23.06835938 C-27.17761372 17.03182939 -26.98452677 12.22591829 -23.2734375 7.28540039 C-16.50996905 0.47284871 -9.24949089 -0.19339967 0 0 Z M1.625 33.875 C-0.34341123 38.2055047 0.62161768 42.0362168 1.375 46.625 C1.56823908 48.16595782 1.75636089 49.70757302 1.9375 51.25 C2.081875 52.36375 2.22625 53.4775 2.375 54.625 C3.24640625 54.65078125 4.1178125 54.6765625 5.015625 54.703125 C21.17565066 55.47265003 35.10725988 60.53490241 46.40234375 72.37890625 C48.46787798 74.73075215 50.41963357 77.18079196 52.375 79.625 C56.665 75.665 60.955 71.705 65.375 67.625 C61.31596212 62.57780885 61.31596212 62.57780885 56.6953125 58.73046875 C55.68452637 58.01624756 55.68452637 58.01624756 54.65332031 57.28759766 C53.94272461 56.80081543 53.23212891 56.3140332 52.5 55.8125 C51.75331055 55.29478027 51.00662109 54.77706055 50.23730469 54.24365234 C27.27515625 37.01222237 27.27515625 37.01222237 1.625 33.875 Z M92.375 92.625 C92.40811275 95.52387118 92.47537894 98.41516622 92.5625 101.3125 C92.56830078 102.12912109 92.57410156 102.94574219 92.58007812 103.78710938 C92.60908203 104.58310547 92.63808594 105.37910156 92.66796875 106.19921875 C92.6836792 106.92713623 92.69938965 107.65505371 92.71557617 108.4050293 C94.35077226 113.90996746 99.83723635 116.72429645 104.55078125 119.39453125 C105.12080368 119.72039719 105.69082611 120.04626312 106.27812195 120.38200378 C108.07704191 121.40812142 109.88204159 122.42293998 111.6875 123.4375 C112.91773928 124.13662848 114.1475613 124.83649174 115.37695312 125.53710938 C118.37153008 127.24158629 121.37166095 128.93599915 124.375 130.625 C124.375 126.45013157 122.07603106 124.59942301 119.4375 121.625 C118.41700152 120.45136116 117.39748366 119.27686899 116.37890625 118.1015625 C115.86859863 117.51536133 115.35829102 116.92916016 114.83251953 116.32519531 C112.78265733 113.93403278 110.83322099 111.46643443 108.875 109 C104.11559165 103.14558284 98.91887071 97.74318063 93.375 92.625 C93.045 92.625 92.715 92.625 92.375 92.625 Z M138.375 147.625 C137.85421875 148.53507813 137.3334375 149.44515625 136.796875 150.3828125 C134.21827485 154.34863425 130.88669169 155.72765185 126.625 157.5 C125.92761719 157.80679688 125.23023438 158.11359375 124.51171875 158.4296875 C122.806319 159.17725999 121.09153839 159.90337067 119.375 160.625 C130.50421772 171.83150396 147.9922713 188.74099886 164.375 191.625 C160.86214713 178.89090836 153.16227209 168.14264864 145.9375 157.25 C144.99620239 155.83025879 144.99620239 155.83025879 144.03588867 154.38183594 C143.44783447 153.5055957 142.85978027 152.62935547 142.25390625 151.7265625 C141.7235376 150.93588379 141.19316895 150.14520508 140.64672852 149.33056641 C140.22705811 148.76772949 139.8073877 148.20489258 139.375 147.625 C139.045 147.625 138.715 147.625 138.375 147.625 Z " fill="#020202" transform="translate(282.625,15.375)"/>
<path d="M0 0 C0.96921107 -0.00367669 1.93842215 -0.00735338 2.93700325 -0.01114148 C6.20565758 -0.02221101 9.47428015 -0.02602776 12.74295044 -0.02983093 C15.07842613 -0.03609334 17.41390081 -0.04273994 19.74937439 -0.04974365 C26.11142557 -0.06717927 32.47346922 -0.07771335 38.83553839 -0.08594918 C42.81064962 -0.0910961 46.7857585 -0.09717211 50.76086807 -0.10346031 C61.77210343 -0.12047864 72.78333778 -0.13496973 83.79458427 -0.14220905 C86.65318681 -0.1441189 89.51178934 -0.14603923 92.37039185 -0.147995 C93.43610915 -0.14872061 93.43610915 -0.14872061 94.52335609 -0.14946087 C106.01588948 -0.15774951 117.50831838 -0.18306392 129.0008062 -0.21557567 C140.80729911 -0.24870235 152.61373906 -0.26666312 164.42027867 -0.26985329 C171.04605128 -0.27201389 177.6716892 -0.28114204 184.2974205 -0.30631447 C190.53710248 -0.32963543 196.77651151 -0.33381199 203.01622581 -0.32355309 C205.30102764 -0.32305853 207.58584308 -0.32935522 209.87060356 -0.34310913 C227.60555958 -0.44385652 241.26766386 0.86595978 254.64187622 13.70967102 C257.11821176 16.33031516 259.39653852 18.7670047 260.76687622 22.14717102 C259.90297541 24.89594633 258.81167973 26.10236751 256.76687622 28.14717102 C251.37972493 27.76335454 246.27175566 26.65297607 241.04812622 25.29951477 C239.60678465 24.93792872 238.16537634 24.57660861 236.72390747 24.2155304 C234.49167091 23.65072103 232.26026864 23.08297405 230.03005981 22.51020813 C227.85058424 21.95251738 225.66840071 21.40662834 223.48562622 20.86201477 C222.83017822 20.69016159 222.17473022 20.51830841 221.49942017 20.34124756 C216.2033864 19.03081977 210.68641948 18.22520999 205.39187622 19.89717102 C202.1657047 22.37884142 201.83550824 24.66674687 201.26687622 28.64717102 C201.40397531 34.78235531 204.9324744 39.87926293 207.76687622 45.14717102 C208.76314291 47.25537581 209.69713005 49.38032523 210.61843872 51.52217102 C211.58288976 53.72663054 212.5838835 55.90520698 213.60281372 58.08467102 C214.26187045 59.52207816 214.92072301 60.95957893 215.57937622 62.39717102 C215.906073 63.08327454 216.23276978 63.76937805 216.56936646 64.47627258 C217.85611523 67.31997 218.78639539 69.60470077 218.67312622 72.75263977 C217.52995974 75.77316154 216.09048776 78.42184535 214.45437622 81.20967102 C214.11333862 81.79458313 213.77230103 82.37949524 213.42092896 82.98213196 C208.64418887 91.1361643 203.74589912 99.2204588 198.85501099 107.30635071 C196.92750682 110.56714977 196.65572522 112.47739266 196.70437622 116.27217102 C196.71339966 117.18224915 196.7224231 118.09232727 196.73171997 119.02998352 C196.74332153 119.7286554 196.7549231 120.42732727 196.76687622 121.14717102 C193.03812234 121.29277297 189.31010188 121.38134145 185.57937622 121.45967102 C184.52427856 121.50156555 183.46918091 121.54346008 182.3821106 121.58662415 C177.62613307 121.66163956 174.66019084 121.68703908 170.52859497 119.19013977 C166.83278571 112.80646924 168.84967253 106.07467935 170.61868286 99.30415344 C171.23463929 97.00877597 171.86346959 94.71754723 172.50135994 92.42816734 C173.18797435 89.96336065 173.86038103 87.4950485 174.5294342 85.02542114 C175.95011703 79.79167603 177.38897237 74.56301677 178.82937622 69.33467102 C180.50242074 63.25579901 182.16794084 57.17500711 183.81811333 51.0898838 C184.48095339 48.65910119 185.15558523 46.23179715 185.83085632 43.80444336 C186.23594063 42.31751684 186.64050494 40.83044853 187.04446411 39.34321594 C187.33037918 38.33403862 187.33037918 38.33403862 187.62207031 37.30447388 C188.52390001 33.93532497 189.0640479 31.45653372 187.76687622 28.14717102 C184.68386206 28.03072946 181.60141499 27.9598467 178.51687622 27.89717102 C177.64418091 27.8636554 176.7714856 27.83013977 175.87234497 27.79560852 C175.02800903 27.7827179 174.1836731 27.76982727 173.31375122 27.75654602 C172.15117798 27.72512512 172.15117798 27.72512512 170.96511841 27.69306946 C167.8144121 28.34392616 166.81015862 29.67457316 164.76687622 32.14717102 C163.86229306 34.58831698 163.15950054 36.84899439 162.54031372 39.35908508 C162.2564682 40.43796242 162.2564682 40.43796242 161.96688843 41.53863525 C161.3459803 43.91028132 160.7442696 46.28638674 160.14187622 48.66279602 C159.71022667 50.31981252 159.27709821 51.97644441 158.84255981 53.63270569 C157.70154992 57.99309702 156.57551653 62.35719652 155.45413208 66.72267151 C153.66229082 73.69573476 151.85616825 80.66498763 150.03427124 87.63025665 C149.40382395 90.05435643 148.78487586 92.48118908 148.16677856 94.90846252 C143.21932086 114.08346073 143.21932086 114.08346073 134.76687622 120.14717102 C131.95565005 121.55278411 129.59735837 121.2978004 126.45291138 121.32417297 C125.80555527 121.33074417 125.15819916 121.33731537 124.4912262 121.34408569 C122.34612922 121.36381772 120.20110222 121.37548031 118.05593872 121.38545227 C117.32358379 121.3895278 116.59122887 121.39360332 115.83668137 121.39780235 C111.96120231 121.41866165 108.08575865 121.43296453 104.2102356 121.44233704 C100.2062144 121.45340769 96.20274802 121.48781475 92.19892311 121.52750874 C89.12083905 121.553644 86.04288787 121.56202602 82.96470261 121.56561852 C81.48869449 121.57049172 80.0126926 121.58212672 78.53679276 121.60065651 C76.47062336 121.62498672 74.40589869 121.62409552 72.33963013 121.61714172 C71.16429718 121.62300797 69.98896423 121.62887421 68.77801514 121.63491821 C65.76687622 121.14717102 65.76687622 121.14717102 63.4185791 119.55529785 C60.53318711 115.3484941 60.52807067 111.57280465 61.35447693 106.63928223 C61.68819809 105.40591629 62.02191925 104.17255035 62.36575317 102.90180969 C62.5477124 102.21459335 62.72967163 101.52737701 62.91714478 100.81933594 C63.51740601 98.56440216 64.13623188 96.3150149 64.75515747 94.06513977 C65.17903632 92.48517941 65.60163812 90.90487594 66.02302551 89.32424927 C67.13357159 85.17063344 68.25949965 81.02135074 69.38931274 76.87294006 C71.19083826 70.24636641 72.96700167 63.61293241 74.74672508 56.98047829 C75.36643879 54.67859679 75.99153081 52.37823521 76.61778259 50.078125 C78.58716841 42.81283861 80.4597894 35.56718571 81.76687622 28.14717102 C78.51694207 28.06354199 75.26755646 28.00668499 72.01687622 27.95967102 C71.0964856 27.9345343 70.17609497 27.90939758 69.22781372 27.88349915 C68.3383606 27.87383118 67.44890747 27.86416321 66.53250122 27.85420227 C65.71555786 27.83849182 64.8986145 27.82278137 64.05691528 27.80659485 C61.10630232 28.24541202 59.94841611 29.11368817 57.76687622 31.14717102 C56.58285353 33.82959237 56.58285353 33.82959237 55.83157349 36.98530579 C55.34570518 38.78977928 55.34570518 38.78977928 54.85002136 40.63070679 C54.51084063 41.94992813 54.17193513 43.26922027 53.83328247 44.58857727 C53.47116356 45.95399727 53.10769053 47.31905879 52.74293518 48.68377686 C51.78319534 52.28861399 50.84122935 55.89786286 49.90310669 59.50837708 C48.9633812 63.11392384 48.00827581 66.71537911 47.0539856 70.3170929 C46.68115266 71.72669394 46.30838003 73.13631094 45.93566895 74.54594421 C45.38540303 76.62664422 44.83494697 78.70729297 44.28389359 80.78778458 C42.59526287 87.16405482 40.90747143 93.53893341 39.32888794 99.94355774 C39.11739609 100.77298386 38.90590424 101.60240997 38.68800354 102.45697021 C38.32132024 103.89526007 37.96864728 105.3372629 37.63591003 106.78378296 C36.1512979 112.48362734 32.89822956 117.07829323 27.98170471 120.32662964 C24.99370572 121.43361234 22.41160339 121.41692798 19.2258606 121.43769836 C18.25438835 121.4477742 18.25438835 121.4477742 17.26329041 121.45805359 C15.12899036 121.47700423 12.99500508 121.48095581 10.86062622 121.48310852 C9.37376782 121.48953705 7.88691068 121.49626545 6.40005493 121.50328064 C3.286459 121.51524498 0.17297398 121.51896219 -2.94064331 121.51777649 C-6.92895554 121.51757301 -10.91655751 121.54490794 -14.90470123 121.57932091 C-17.97422551 121.60156135 -21.04357783 121.60561497 -24.11317444 121.60455704 C-25.58358719 121.60691605 -27.05400446 121.61575659 -28.52433777 121.63122177 C-30.5807679 121.65083168 -32.63565285 121.64506637 -34.69210815 121.63301086 C-35.86140869 121.6358609 -37.03070923 121.63871094 -38.23544312 121.64164734 C-41.85596721 121.04443115 -42.99115953 119.98694551 -45.23312378 117.14717102 C-47.9980144 111.61738978 -45.64879473 104.99293875 -44.09347534 99.3730011 C-43.86581482 98.52318665 -43.6381543 97.67337219 -43.40359497 96.79780579 C-42.65216605 94.00172629 -41.8881925 91.20924901 -41.12374878 88.41670227 C-40.5945779 86.4602329 -40.0660853 84.50357996 -39.53823853 82.54675293 C-38.43053044 78.4474749 -37.31702839 74.34983204 -36.19894409 70.25337219 C-34.77396221 65.03201965 -33.35966 59.80785398 -31.9492836 54.58253956 C-30.85754095 50.53998154 -29.76192915 46.49848061 -28.66500092 42.45732689 C-28.14283174 40.53322556 -27.62139791 38.60892449 -27.10074615 36.684412 C-18.74050913 5.82541854 -18.74050913 5.82541854 -11.23312378 1.14717102 C-7.78264665 -0.57806754 -3.79808321 -0.0007645 0 0 Z " fill="#BC93FA" transform="translate(66.23312377929688,79.85282897949219)"/>
<path d="M0 0 C7.64803213 1.92666935 14.8449334 4.78948604 21.76660156 8.56494141 C22.79011719 8.99033203 23.81363281 9.41572266 24.86816406 9.85400391 C29.60611916 11.85979871 34.07790707 14.33150914 38.57910156 16.81494141 C39.46911865 17.30583252 40.35913574 17.79672363 41.27612305 18.30249023 C47.39243644 21.71427697 53.1715077 25.34618079 58.76660156 29.56494141 C59.99056641 30.42925781 59.99056641 30.42925781 61.23925781 31.31103516 C79.59225464 44.3122008 95.75278259 59.47967028 111.64160156 75.31494141 C112.18807343 75.8586438 112.73454529 76.40234619 113.2975769 76.96252441 C119.33728707 82.97989007 125.28992628 89.02193251 130.76660156 95.56494141 C131.5286792 96.46696289 131.5286792 96.46696289 132.30615234 97.38720703 C152.69145079 121.70651044 171.2161239 148.30216965 183.76660156 177.56494141 C184.20230469 178.58072266 184.63800781 179.59650391 185.08691406 180.64306641 C188.04015187 188.36691913 189.0299857 196.37152368 187.76660156 204.56494141 C185.00929153 209.46491112 182.38410255 212.48073225 176.90039062 214.12426758 C163.59668337 216.87177234 149.52083033 214.51657211 136.76660156 210.56494141 C135.01863281 210.09701172 135.01863281 210.09701172 133.23535156 209.61962891 C124.80546244 207.36026673 116.69255368 204.46055297 108.57861328 201.2734375 C107.02298439 200.66518702 105.45990875 200.07604274 103.89550781 199.49072266 C96.64645623 196.66054142 89.78970716 193.08560761 82.89160156 189.50244141 C81.89185303 188.98343262 80.89210449 188.46442383 79.86206055 187.9296875 C74.97967031 185.36251775 70.2728748 182.74988368 65.76660156 179.56494141 C65.35087891 181.44439453 65.35087891 181.44439453 64.92675781 183.36181641 C64.5609006 185.01286432 64.19501363 186.66390565 63.82910156 188.31494141 C63.64669922 189.13994141 63.46429688 189.96494141 63.27636719 190.81494141 C63.01049805 192.01376953 63.01049805 192.01376953 62.73925781 193.23681641 C62.49574585 194.33654785 62.49574585 194.33654785 62.24731445 195.45849609 C61.78106611 197.50155894 61.28239507 199.53387903 60.76660156 201.56494141 C56.40931709 199.98141522 53.94379967 196.58551508 51.07910156 193.12744141 C50.5509082 192.50071533 50.02271484 191.87398926 49.47851562 191.22827148 C46.28883292 187.43220173 43.14772771 183.59691977 40.01660156 179.75244141 C39.28441406 178.88619141 38.55222656 178.01994141 37.79785156 177.12744141 C35.76660156 174.56494141 35.76660156 174.56494141 34.17285156 171.81494141 C32.22194363 168.79655554 30.95192874 167.27632675 27.76660156 165.56494141 C21.72106997 164.93791256 15.61506579 166.17601118 9.65820312 167.12890625 C4.94171132 167.84012327 0.20275038 168.25685785 -4.54589844 168.68994141 C-5.39821045 168.77671143 -6.25052246 168.86348145 -7.12866211 168.95288086 C-12.19198762 169.45525651 -17.14515332 169.64691544 -22.23339844 169.56494141 C-18.24552287 161.06677734 -13.44837425 153.11478383 -8.54589844 145.12744141 C-7.76624971 143.84966123 -6.98695059 142.57166768 -6.20800781 141.29345703 C-0.66952978 132.21913842 -0.66952978 132.21913842 1.76660156 128.56494141 C1.5833262 122.10031968 -1.12780141 116.83358342 -3.85839844 111.06494141 C-4.53020142 109.61595459 -4.53020142 109.61595459 -5.21557617 108.13769531 C-6.54500369 105.27537346 -7.8866751 102.41916049 -9.23339844 99.56494141 C-11.41024053 94.94649355 -11.41024053 94.94649355 -12.38916016 92.86376953 C-13.2389094 91.06085515 -14.09717983 89.26196391 -14.95605469 87.46337891 C-15.98478835 85.12906583 -16.74147774 83.05491036 -17.23339844 80.56494141 C-14.75349037 81.10336334 -12.27441482 81.64516639 -9.79589844 82.18994141 C-8.6167688 82.44855957 -8.6167688 82.44855957 -7.41381836 82.71240234 C-2.49903947 83.80279066 2.39566542 84.95563646 7.28222656 86.16650391 C8.94040405 86.57521729 8.94040405 86.57521729 10.63208008 86.9921875 C12.81395687 87.5325656 14.99420689 88.07956351 17.17260742 88.63378906 C26.01054635 91.21862264 26.01054635 91.21862264 34.67285156 89.52587891 C35.19878906 89.00251953 35.72472656 88.47916016 36.26660156 87.93994141 C36.92660156 87.30830078 37.58660156 86.67666016 38.26660156 86.02587891 C39.09160156 85.21376953 39.91660156 84.40166016 40.76660156 83.56494141 C42.59607157 81.84215527 44.43532281 80.13017857 46.27514648 78.41845703 C47.60303751 77.18254325 48.92872447 75.94425715 50.25219727 74.70361328 C54.18466692 71.01806729 58.16161189 67.40422214 62.25488281 63.89697266 C63.60901186 62.70379952 64.88209055 61.42009744 66.14160156 60.12744141 C67.76660156 58.56494141 67.76660156 58.56494141 69.76660156 58.56494141 C69.81671387 59.26240479 69.86682617 59.95986816 69.91845703 60.6784668 C70.02504639 62.15561157 70.02504639 62.15561157 70.13378906 63.66259766 C70.21185791 64.76321533 70.28992676 65.86383301 70.37036133 66.99780273 C70.55288623 69.44028487 70.75159272 71.88160587 70.96557617 74.3215332 C71.47284903 80.27010915 71.82806857 86.02235676 71.46582031 91.98681641 C71.11900407 100.54894714 71.11900407 100.54894714 73.76660156 108.56494141 C79.92899471 114.46412992 87.92945255 117.74844256 95.64794922 121.13964844 C99.86278646 123.0659221 103.73554481 125.39700767 107.64160156 127.87744141 C110.63976097 129.73870529 113.39409501 131.44077256 116.76660156 132.56494141 C116.43660156 133.55494141 116.10660156 134.54494141 115.76660156 135.56494141 C113.68457031 136.55712891 113.68457031 136.55712891 110.95410156 137.43994141 C106.66270589 138.89845497 102.45497151 140.45541548 98.26660156 142.18994141 C97.28691406 142.59470703 96.30722656 142.99947266 95.29785156 143.41650391 C92.60482615 144.55625078 92.60482615 144.55625078 89.76660156 146.56494141 C101.62760278 158.77910895 101.62760278 158.77910895 114.76660156 169.56494141 C115.37197754 170.01434082 115.97735352 170.46374023 116.60107422 170.92675781 C138.97906172 187.90746269 138.97906172 187.90746269 165.76660156 192.56494141 C167.12720274 191.42631665 167.12720274 191.42631665 166.94628906 188.39697266 C166.1166639 170.70431424 152.35148604 152.8630542 142.76660156 138.56494141 C142.15461914 137.64213379 142.15461914 137.64213379 141.53027344 136.70068359 C132.29001486 122.79797394 122.37419847 109.20260871 110.95996094 96.99462891 C108.83712142 94.64305958 106.88980808 92.21676441 104.93457031 89.72509766 C99.34370272 82.86126073 93.14987005 76.6471117 86.87451172 70.41210938 C84.89478732 68.44310991 82.92599402 66.46363414 80.95800781 64.48291016 C73.87322476 57.38945675 66.72216304 50.68544289 58.76660156 44.56494141 C57.58445068 43.64817627 57.58445068 43.64817627 56.37841797 42.71289062 C41.33892564 31.19456186 26.36209222 21.62994255 8.76660156 14.56494141 C7.90164063 14.20271484 7.03667969 13.84048828 6.14550781 13.46728516 C0.46218407 11.28918426 -5.19156295 10.71384693 -11.23339844 11.56494141 C-15.38967592 13.60662158 -17.54101455 15.29217664 -19.23339844 19.56494141 C-19.50647665 21.97986593 -19.50647665 21.97986593 -19.42871094 24.54931641 C-19.42226563 25.48388672 -19.41582031 26.41845703 -19.40917969 27.38134766 C-19.38404297 28.83347656 -19.38404297 28.83347656 -19.35839844 30.31494141 C-19.349375 31.29849609 -19.34035156 32.28205078 -19.33105469 33.29541016 C-19.30752629 35.71883548 -19.27465212 38.14176362 -19.23339844 40.56494141 C-22.96990413 38.69668856 -23.82653998 33.49693025 -25.17407227 29.71044922 C-27.65335437 22.17643398 -28.85377057 14.42238838 -27.23339844 6.56494141 C-20.0751868 -2.02966096 -10.42035832 -2.02985117 0 0 Z " fill="#FAFAFA" transform="translate(293.2333984375,26.43505859375)"/>
<path d="M0 0 C0.66 0.33 1.32 0.66 2 1 C1.38511719 1.59748047 1.38511719 1.59748047 0.7578125 2.20703125 C0.21898437 2.73683594 -0.31984375 3.26664063 -0.875 3.8125 C-1.40867187 4.33457031 -1.94234375 4.85664063 -2.4921875 5.39453125 C-4.20776561 7.13259904 -4.20776561 7.13259904 -6 10 C-5.58578031 5.16743695 -3.53586014 3.17320782 0 0 Z " fill="#C7C7C7" transform="translate(272,27)"/>
</svg>
